<svg width="0" height="0" display="none" id="campi-sprite" xmlns="http://www.w3.org/2000/svg" xmlns:xlink="http://www.w3.org/1999/xlink">

	<symbol id="ico-arrow-dot" viewBox="0 0 5 8">
		<path d="M2.5 0V5M2.5 5L4.5 3M2.5 5L0.5 3" stroke="black" stroke-width="0.8"/>
		<rect x="1.8999" y="7" width="1" height="1" fill="black"/>
	</symbol>

	<symbol id="ico-triangle-carousel" viewBox="0 0 6 8">
		<path d="M6 4.00023L-3.02841e-07 7.46434L0 0.536133L6 4.00023Z" fill="black"/>
	</symbol>

	<symbol id="ico-arrow-right" viewBox="0 0 15 12">
		<path d="M11.2459 6H1H11.2459Z" fill="black"/>
		<path d="M11.2459 6H1" stroke="black" stroke-width="1.6" stroke-linecap="square" stroke-linejoin="bevel"/>
		<path d="M8.13672 1.15186L12.963 5.99999" stroke="black" stroke-width="1.6" stroke-linecap="square" stroke-linejoin="bevel"/>
		<path d="M8.13672 10.8481L12.963 6" stroke="black" stroke-width="1.6" stroke-linecap="square" stroke-linejoin="bevel"/>
	</symbol>

	<symbol id="ico-dot" viewBox="0 0 4 4">
		<circle cx="2" cy="2" r="2" fill="black"/>
	</symbol>

	<symbol id="ico-map" viewBox="0 0 13 13">
		<path d="M4.5 1L1 2.5V12L4.5 10M4.5 1V10M4.5 1L8.5 2.5M4.5 10L8.5 12M8.5 12L12.5 10.5V1L8.5 2.5M8.5 12V2.5" fill="none" stroke="black"/>
	</symbol>

	<symbol id="ico-close" viewBox="0 0 11 11">
		<path d="M1 1L10 10" stroke="black" stroke-width="1.4"/>
		<path d="M10 1L1 10" stroke="black" stroke-width="1.4"/>
	</symbol>

	<symbol id="ico-chevron" viewBox="0 0 8 6">
		<path d="M1 1L4.5 4.5L8 1" fill="none" stroke="black" stroke-width="0.8"/>
	</symbol>


	<symbol id="ico-search" viewBox="0 0 12 12">
		<path d="M9.23289 8.4133L11.7843 10.8012L10.8795 11.7061L8.32084 9.31133L8.22603 9.22259L8.12463 9.30371C7.73958 9.61176 7.29557 9.85664 6.79129 10.0377C6.2899 10.2177 5.75526 10.3081 5.18633 10.3081C3.77567 10.3081 2.58734 9.82125 1.6121 8.84601C0.636858 7.87077 0.15 6.68244 0.15 5.27178C0.15 3.86112 0.636858 2.67278 1.6121 1.69755C2.58734 0.722307 3.77567 0.235449 5.18633 0.235449C6.59699 0.235449 7.78532 0.722307 8.76056 1.69755C9.7358 2.67278 10.2227 3.86112 10.2227 5.27178C10.2227 5.8407 10.1322 6.37535 9.95222 6.87674C9.77119 7.38102 9.52631 7.82503 9.21826 8.21008L9.13156 8.31846L9.23289 8.4133ZM5.18633 9.01232C6.22303 9.01232 7.10908 8.64775 7.83569 7.92114C8.5623 7.19453 8.92687 6.30848 8.92687 5.27178C8.92687 4.23508 8.5623 3.34903 7.83569 2.62242C7.10908 1.89581 6.22303 1.53124 5.18633 1.53124C4.14963 1.53124 3.26358 1.89581 2.53697 2.62242C1.81036 3.34903 1.44579 4.23508 1.44579 5.27178C1.44579 6.30848 1.81036 7.19453 2.53697 7.92114C3.26358 8.64775 4.14963 9.01232 5.18633 9.01232Z" fill="black" stroke="black" stroke-width="0.3"/>
	</symbol>


	<symbol id="ico-download" viewBox="0 0 12 10">
		<line x1="0.8" y1="6.81592" x2="0.8" y2="9.81592" stroke="black" stroke-width="1.6"/>
		<line x1="10.8" y1="6.81592" x2="10.8" y2="9.81592" stroke="black" stroke-width="1.6"/>
		<line y1="9.11592" x2="11" y2="9.11592" stroke="black" stroke-width="1.4"/>
		<mask id="path-4-inside-1_118_816" fill="white">
		<path d="M5.91667 7.8159L3 4.89923L3.81667 4.0534L5.33333 5.57007V0.184578H6.5V5.57007L8.01667 4.0534L8.83333 4.89923L5.91667 7.8159Z"/>
		</mask>
		<path d="M5.91667 7.8159L3 4.89923L3.81667 4.0534L5.33333 5.57007V0.184578H6.5V5.57007L8.01667 4.0534L8.83333 4.89923L5.91667 7.8159Z" fill="black"/>
		<path d="M5.91667 7.8159L4.50245 9.23011L5.91667 10.6443L7.33088 9.23011L5.91667 7.8159ZM3 4.89923L1.5612 3.51004L0.196167 4.92383L1.58579 6.31345L3 4.89923ZM3.81667 4.0534L5.23088 2.63919L3.79164 1.19994L2.37786 2.66421L3.81667 4.0534ZM5.33333 5.57007L3.91912 6.98428L7.33333 10.3985V5.57007H5.33333ZM5.33333 0.184578V-1.81542H3.33333V0.184578H5.33333ZM6.5 0.184578H8.5V-1.81542H6.5V0.184578ZM6.5 5.57007H4.5V10.3985L7.91421 6.98428L6.5 5.57007ZM8.01667 4.0534L9.45547 2.66421L8.0417 1.19994L6.60245 2.63919L8.01667 4.0534ZM8.83333 4.89923L10.2475 6.31345L11.6372 4.92383L10.2721 3.51004L8.83333 4.89923ZM7.33088 6.40169L4.41421 3.48502L1.58579 6.31345L4.50245 9.23011L7.33088 6.40169ZM4.4388 6.28842L5.25547 5.44259L2.37786 2.66421L1.5612 3.51004L4.4388 6.28842ZM2.40245 5.46761L3.91912 6.98428L6.74755 4.15585L5.23088 2.63919L2.40245 5.46761ZM7.33333 5.57007V0.184578H3.33333V5.57007H7.33333ZM5.33333 2.18458H6.5V-1.81542H5.33333V2.18458ZM4.5 0.184578V5.57007H8.5V0.184578H4.5ZM7.91421 6.98428L9.43088 5.46761L6.60245 2.63919L5.08579 4.15585L7.91421 6.98428ZM6.57786 5.44259L7.39453 6.28842L10.2721 3.51004L9.45547 2.66421L6.57786 5.44259ZM7.41912 3.48502L4.50245 6.40169L7.33088 9.23011L10.2475 6.31345L7.41912 3.48502Z" fill="black" mask="url(#path-4-inside-1_118_816)"/>
	</symbol>


</svg>
