<svg width="706" height="170" viewBox="0 0 706 170" fill="none" xmlns="http://www.w3.org/2000/svg">
<path d="M85.8354 169.247C39.7719 169.247 9.4374 136.665 9.4374 86.5574C9.4374 34.2023 41.5695 0.722 87.4083 0.722C125.607 0.722 154.369 24.3155 155.268 56.6723H130.775C128.978 34.6517 112.125 20.0462 87.4083 20.0462C55.2762 20.0462 33.9297 45.2126 33.9297 86.3327C33.9297 125.88 53.7033 149.698 86.0601 149.698C111.901 149.698 129.427 134.643 130.775 111.499H155.492C153.021 146.103 124.708 169.247 85.8354 169.247ZM156.356 167L219.497 2.969H245.562L308.703 167H283.761L267.807 123.408H197.251L181.298 167H156.356ZM203.768 104.084H261.291L233.203 27.0119H231.855L203.768 104.084ZM322.114 167V2.969H360.089L408.399 143.406H409.298L457.609 2.969H495.583V167H472.663V27.4613H471.765L422.555 167H394.917L345.708 27.4613H344.584V167H322.114ZM526.521 167V2.969H594.381C624.49 2.969 646.062 20.4956 646.062 51.2795C646.062 83.1869 624.266 102.062 592.808 102.062H549.665V167H526.521ZM549.665 82.2881H591.684C610.559 82.2881 621.569 71.7272 621.569 52.6277C621.569 33.5282 611.008 22.7426 591.46 22.7426H549.665V82.2881ZM664.44 167V2.969H687.584V167H664.44Z" fill="white"/>
</svg>
